<svg id="Capa_1" data-name="Capa 1" xmlns="http://www.w3.org/2000/svg" viewBox="0 0 527.3 525"><defs><style>.cls-1,.cls-2{fill:#0b99e0;}.cls-2{font-size:50.43px;font-family:Couture-Bold, Couture;font-weight:700;}</style></defs><title>Logo Turismo</title><polygon class="cls-1" points="348.27 162.03 348.63 164.77 344.52 165.62 343.99 171.44 348.89 171.44 355.43 170.82 358.8 166.81 355.22 165.41 353.26 163.15 350.3 158.38 348.89 151.62 343.36 152.75 341.8 155.13 341.8 157.82 344.47 159.64 348.27 162.03"/><polygon class="cls-1" points="343.55 164.28 343.84 160.62 340.59 159.21 336.05 160.27 332.67 165.68 332.67 169.19 336.61 169.19 343.55 164.28"/><path class="cls-1" d="M298,206.79l-1,2.58h-4.85v2.5h1.15l.16,1.23,3-.25,1.86-1.15.49-2.32,2.41-.21.94-2-2.2-.46Z" transform="translate(-48.1 -27)"/><polygon class="cls-1" points="237.47 184.33 237.28 186.78 240.79 186.48 241.16 184.03 239.05 182.37 237.47 184.33"/><path class="cls-1" d="M496.32,289.42c-.06-5.39-.33-10.73-.84-16a182.93,182.93,0,0,0-12.19-50.18c-.47-1.17-.9-2.36-1.4-3.52a184.27,184.27,0,0,0-34.57-53.4c-.95-1-1.91-2-2.87-3-2.72-2.83-5.52-5.59-8.41-8.23a183.88,183.88,0,0,0-248.69.78,186.65,186.65,0,0,0-21.07,23,183.27,183.27,0,0,0-38.44,112.45c0,101.6,82.66,184.26,184.25,184.26,71.47,0,133.51-40.93,164.06-100.55a182.73,182.73,0,0,0,15-40.58c.87-3.62,1.62-7.24,2.28-10.91a184.47,184.47,0,0,0,2.87-32.21C496.36,290.69,496.32,290.05,496.32,289.42Zm-34.69-73.64,1.07-1.2c1.4,2.72,2.71,5.49,4,8.29l-1.74-.06-3.29.45ZM435,183.63l0-8.23q4.34,4.61,8.35,9.5l-3.32,4.95-11.61-.1-.73-2.42ZM212.74,163.17v-.31h3.69l.32-1.26h6v2.64l-1.73,2.32h-8.32v-3.39Zm5.89,8.23s3.69-.63,4-.63,0,3.68,0,3.68l-8.32.53-1.58-1.89Zm254.73,73.14H459.88l-8.21-6.11-8.64.84v5.27h-2.74l-3-2.1-15-3.8v-9.7l-19,1.48-5.89,3.15H390l-3.7-.37-9.15,5.08v9.56l-18.69,13.48,1.55,5.76h3.79l-1,5.49-2.66,1L360,287.89l16.16,18.4h7l.42-1.13h12.64l3.64-3.37H407l3.93,3.94,10.69,1.11-1.42,14.21L432.11,342l-6.24,11.94.41,5.62,4.92,4.91V378l6.46,8.69V397.9h5.58a168.86,168.86,0,0,1-131.15,62.53c-93.23,0-169.08-75.86-169.08-169.1a168.14,168.14,0,0,1,13.5-66.18v-5.28l6-7.34q3.15-5.94,6.76-11.6l.27,3.07-7,8.53c-2.18,4.11-4.21,8.3-6,12.62v9.62l7,3.39v13.37l6.74,11.5,5.48.84.71-3.95L170,250l-1.27-9.7h3.79l1.6,10,9.34,13.63-2.41,4.4,5.94,9.09L201.74,281v-2.39l5.91.84-.56,4.21,4.63.85,7.17,2L229,298l12.92,1,1.27,10.54-8.84,6.18-.42,9.42-1.27,5.76,12.79,16,1,5.49s4.64,1.26,5.21,1.26,10.4,7.44,10.4,7.44V390l3.51,1-2.39,13.35,5.9,7.87L268,425.48l7.8,13.72,10,8.74,10.07.18,1-3.24-7.39-6.23.43-3.09,1.32-3.79.29-3.86-5-.15-2.52-3.17,4.15-4,.55-3L284,416.25l.27-2.8,6.61-1,10.05-4.82,3.37-6.19,10.54-13.49-2.39-10.55,3.24-5.62,9.68.3,6.53-5.17L334,346.55l7.24-9.19,1.26-5.91-6.6-2.12-4.36-7.15L316.68,322l-11.81-4.5-.56-8.42-3.94-6.89-10.68-.16-6.17-9.69-5.47-2.67-.28,3-10,.58-3.65-5.08-10.41-2.12-8.56,9.9-13.49-2.29-1-15.2-9.84-1.68,3.95-7.46-1.13-4.28-12.94,8.64-8.14-1-2.9-6.36,1.77-6.56,4.49-8.26,10.33-5.23h19.95l-.05,6.08,7.17,3.33-.57-10.39,5.17-5.2,10.43-6.85.71-4.83,10.4-10.82,11.06-6.13-1-.8,7.48-7,2.75.73,1.26,1.58,2.84-3.15.7-.31-3.12-.44L288.31,201v-3l1.67-1.38h3.7l1.69.75,1.45,3,1.8-.26v-.27l.51.18,5.18-.8.74-2.53,3,.75v2.74L305.27,202h0l.39,3,9.39,2.89a.66.66,0,0,1,0,.12l2.16-.19.14-4.07-7.44-3.38-.42-2,6.18-2.11.27-5.9-6.45-3.94-.43-10-8.85,4.35H297l.85-7.59-12-2.84-5,3.77v11.49l-9,2.84L268.27,196l-3.89.62V187l-8.43-1.17-4.21-2.74-1.7-6.21,15.07-8.82,7.37-2.24.74,5,4.1-.21.32-2.49,4.3-.61.07-.87-1.85-.77-.42-2.63,5.28-.44,3.18-3.33.18-.24h0l1-1,11.1-1.4,4.91,4.17-12.87,6.86,16.39,3.87,2.12-5.48h7.16l2.53-4.78-5.07-1.26v-6l-15.87-7-11,1.26-6.18,3.24.42,7.87-6.46-1-1-4.35,6.19-5.62L270.58,148l-3.23,1-1.4,3.79,4.21.71-.84,4.21-7.16.42L261,160.89l-10.39.28s-.29-5.89-.71-5.89l8.15-.15,6.19-6-3.37-1.7-4.5,4.37-7.45-.42-4.49-6.18H234.9l-10,7.45h9.14l.84,2.68-2.37,2.21,10.12.28,1.55,3.65L232.81,161l-.56-2.81-7.16-1.54-3.8-2.11-8.53.07a168.62,168.62,0,0,1,211,9.87l-2,3.59-7.8,3.06-3.29,3.57.76,4.16,4,.56,2.43,6.07,6.94-2.8,1.14,8.1h-2.09l-5.7-.84L411.82,191l-6.12,8.64L397,201l-1.27,7.49,3.7.87-1.07,4.81-8.68-1.74-8,1.74L380,218.62l1.39,9.31,4.66,2.19,7.85,0,5.3-.48,1.61-4.21,8.28-10.76,5.45,1.12,5.37-4.85,1,3.79,13.21,8.9-1.62,2.17-5.94-.32,2.28,3.24,3.66.81,4.3-1.79-.09-5.17,1.91-1L437,220,428.23,215l-2.32-6.53h7.32l2.34,2.32,6.3,5.43.27,6.57,6.53,7,2.44-9.53,4.52-2.47.85,7.8,4.41,4.84,8.83-.15q2.56,6.58,4.57,13.41Zm-245-53.75,4.43-2.11,4,1L235.39,195l-4.32,1.37Zm23.49,12.65v3.48H241.72l-3.79-1.05,1-2.43,4.85-2h6.64v2Zm4.65,4.86v3.37L254,213.29l-3.15.58v-5.58Zm-2.85-1.38v-4l3.48,3.17Zm1.59,8.11v3.28l-2.42,2.43h-5.37l.84-3.69,2.54-.21.53-1.27Zm-13.39-6.74h5.58l-7.16,10-3-1.59.63-4.21Zm22.87,5.58v3.27h-5.37L257.87,215v-3h.42Zm-5-4.5,1.53-1.61,2.59,1.61-2.07,1.7Zm216.37,43.71.53-.62c.22.95.46,1.91.66,2.87Z" transform="translate(-48.1 -27)"/><path class="cls-1" d="M156.51,219.87v5.28c1.84-4.31,3.87-8.5,6-12.62Z" transform="translate(-48.1 -27)"/><path class="cls-1" d="M506,129.51,472.19,109s21.54-61.57,19.66-70.12-11-11.83-11-11.83L444.58,94,407.3,77.77l-.23-24.46-11.4-10.12s-3.33,27.92-8.07,34.69-23.37,19.4-23.37,19.4l9.83,10,25.44-13.7,31.37,21.71-39,65.17s7.86,9.67,15.58,5.46S453,133.06,453,133.06s36.71,20.53,40.6,21.42,13.54,6,18.44-5.66S509.93,131.93,506,129.51Z" transform="translate(-48.1 -27)"/><path class="cls-1" d="M108.23,297.73c0-120.2,97.79-218,218-218A215.64,215.64,0,0,1,362.68,83l13.79-8.5L381,59.37c-15.57-3.14-38.26-6.53-54.78-6.53-135,0-244.88,109.86-244.88,244.89a318.6,318.6,0,0,0,2.33,40.16C90.41,390.95,157.91,483,211.5,483,153.47,441.48,108.23,375.86,108.23,297.73Z" transform="translate(-48.1 -27)"/><text class="cls-2" transform="translate(0 519.86)">Turismomaniacos</text></svg>